<svg xmlns="http://www.w3.org/2000/svg" width="64" height="64" viewBox="0 0 64 64" fill="none"><rect width="64" height="64" rx="5" fill="#1a69fd" fill-opacity="0.15"></rect><g clip-path="url(#clip0_20_7723)"><path d="M36.5148 28.8786C36.8124 29.1399 37.0868 29.4263 37.335 29.7349C38.3305 28.5366 38.8743 27.0271 38.8716 25.4693C38.882 24.0251 38.4168 22.6176 37.5476 21.4643C36.6784 20.3109 35.4536 19.4758 34.0625 19.0879V20.522C35.076 20.8907 35.9503 21.5643 36.5653 22.4502C37.1802 23.3362 37.5056 24.3909 37.4966 25.4693C37.4991 26.6605 37.1004 27.8179 36.3646 28.7548C36.4148 28.7961 36.4657 28.836 36.5148 28.8786Z" fill="#1a69fd"></path><path d="M45.9132 22.541H44.5348C44.2341 21.1992 43.7166 19.9154 43.0027 18.7401L43.9996 17.7116C44.2857 17.4121 44.4454 17.0138 44.4454 16.5996C44.4454 16.1854 44.2857 15.7871 43.9996 15.4876L42.1578 13.5877C42.0144 13.4385 41.8424 13.3199 41.652 13.2388C41.4617 13.1577 41.2569 13.116 41.05 13.116C40.8432 13.116 40.6384 13.1577 40.4481 13.2388C40.2577 13.3199 40.0857 13.4385 39.9423 13.5877L38.9685 14.5921C37.8456 13.8698 36.6092 13.3416 35.311 13.0297V11.5829C35.3126 11.2016 35.1755 10.8328 34.9252 10.5451C34.6749 10.2575 34.3286 10.0707 33.9507 10.0195C34.0247 10.2343 34.0626 10.4599 34.0628 10.6871V13.9782C34.1645 14.1251 34.3198 14.2264 34.4952 14.2604C35.9973 14.5464 37.4194 15.1551 38.6632 16.0444C38.7971 16.1395 38.9606 16.1835 39.1241 16.1686C39.2876 16.1536 39.4404 16.0807 39.5549 15.963L40.9299 14.5447C40.9427 14.5243 40.9605 14.5076 40.9815 14.496C41.0026 14.4844 41.0262 14.4784 41.0502 14.4784C41.0742 14.4784 41.0979 14.4844 41.1189 14.496C41.1399 14.5076 41.1577 14.5243 41.1705 14.5447L43.012 16.4446C43.0506 16.4869 43.0721 16.5421 43.0721 16.5994C43.0722 16.6566 43.0509 16.7119 43.0123 16.7543L41.6377 18.1722C41.5283 18.2851 41.4608 18.4321 41.4466 18.5887C41.4324 18.7452 41.4723 18.9019 41.5597 19.0327C42.4312 20.3357 43.0224 21.8058 43.2956 23.3495C43.324 23.5083 43.4073 23.652 43.531 23.7556C43.6546 23.8591 43.8108 23.9159 43.9721 23.916H45.9132C45.9648 23.92 46.0126 23.9442 46.0464 23.9832C46.0803 24.0223 46.0974 24.0731 46.0941 24.1246V26.8121C46.0974 26.8636 46.0803 26.9144 46.0464 26.9535C46.0126 26.9925 45.9648 27.0167 45.9132 27.0207H43.9721C43.8107 27.0207 43.6545 27.0774 43.5308 27.181C43.407 27.2846 43.3236 27.4284 43.2952 27.5872C43.022 29.1309 42.4309 30.601 41.5593 31.904C41.472 32.0348 41.4322 32.1915 41.4465 32.3481C41.4607 32.5047 41.5282 32.6516 41.6377 32.7644L43.012 34.1821C43.0506 34.2244 43.0721 34.2796 43.0721 34.3369C43.0722 34.3941 43.0509 34.4494 43.0123 34.4918L42.1165 35.4158C42.3985 35.8149 42.6179 36.2549 42.7669 36.7203L43.9996 35.4488C44.2857 35.1493 44.4454 34.751 44.4454 34.3368C44.4454 33.9225 44.2857 33.5242 43.9996 33.2247L43.0027 32.1969C43.7166 31.0215 44.2341 29.7376 44.5348 28.3957H45.9132C46.3294 28.3915 46.7269 28.2225 47.0186 27.9256C47.3103 27.6287 47.4723 27.2282 47.4691 26.8121V24.1246C47.4723 23.7085 47.3103 23.308 47.0186 23.0111C46.7269 22.7142 46.3294 22.5451 45.9132 22.541ZM31.2214 28.6157C29.8993 28.8041 28.6911 29.4673 27.8224 30.4815C26.9536 31.4957 26.4838 32.7914 26.5007 34.1267C26.5025 34.3351 26.5174 34.5431 26.5453 34.7496H25.8128C24.9011 34.7496 24.0268 35.1118 23.3821 35.7564C22.7375 36.4011 22.3753 37.2754 22.3753 38.1871C22.3753 39.0988 22.7375 39.9731 23.3821 40.6178C24.0268 41.2624 24.9011 41.6246 25.8128 41.6246H26.1566V45.0621H22.5733C22.4154 44.7002 22.1376 44.4037 21.7868 44.2225C21.436 44.0413 21.0334 43.9864 20.6469 44.0671C20.2604 44.1478 19.9134 44.3591 19.6643 44.6655C19.4153 44.9719 19.2793 45.3547 19.2793 45.7496C19.2793 46.1445 19.4153 46.5273 19.6643 46.8337C19.9134 47.1401 20.2604 47.3514 20.6469 47.4321C21.0334 47.5128 21.436 47.4579 21.7868 47.2767C22.1376 47.0955 22.4154 46.799 22.5733 46.4371H26.8441C27.0264 46.4371 27.2013 46.3647 27.3302 46.2357C27.4591 46.1068 27.5316 45.9319 27.5316 45.7496V41.6246H29.5941V47.9578C29.2322 48.1158 28.9357 48.3935 28.7545 48.7444C28.5733 49.0952 28.5184 49.4977 28.5991 49.8843C28.6797 50.2708 28.891 50.6178 29.1975 50.8668C29.5039 51.1159 29.8867 51.2519 30.2816 51.2519C30.6764 51.2519 31.0592 51.1159 31.3657 50.8668C31.6721 50.6178 31.8834 50.2708 31.9641 49.8843C32.0447 49.4977 31.9898 49.0952 31.8086 48.7444C31.6274 48.3935 31.331 48.1158 30.9691 47.9578V41.6246H33.0316V50.7078C32.6697 50.8658 32.3732 51.1435 32.192 51.4944C32.0108 51.8452 31.9559 52.2477 32.0366 52.6343C32.1172 53.0208 32.3285 53.3678 32.635 53.6168C32.9414 53.8659 33.3242 54.0019 33.7191 54.0019C34.1139 54.0019 34.4967 53.8659 34.8032 53.6168C35.1096 53.3678 35.3209 53.0208 35.4016 52.6343C35.4822 52.2477 35.4273 51.8452 35.2461 51.4944C35.0649 51.1435 34.7685 50.8658 34.4066 50.7078V41.6246H36.4691V45.7496C36.4691 45.9319 36.5415 46.1068 36.6704 46.2357C36.7994 46.3647 36.9742 46.4371 37.1566 46.4371H41.4273C41.5853 46.799 41.863 47.0955 42.2138 47.2767C42.5647 47.4579 42.9672 47.5128 43.3537 47.4321C43.7403 47.3514 44.0872 47.1401 44.3363 46.8337C44.5854 46.5273 44.7213 46.1445 44.7213 45.7496C44.7213 45.3547 44.5854 44.9719 44.3363 44.6655C44.0872 44.3591 43.7403 44.1478 43.3537 44.0671C42.9672 43.9864 42.5647 44.0413 42.2138 44.2225C41.863 44.4037 41.5853 44.7002 41.4273 45.0621H37.8441V41.6246H38.1878C39.0995 41.6246 39.9738 41.2624 40.6185 40.6178C41.2631 39.9731 41.6253 39.0988 41.6253 38.1871C41.6253 37.2754 41.2631 36.4011 40.6185 35.7564C39.9738 35.1118 39.0995 34.7496 38.1878 34.7496L37.4563 34.7623C37.4856 34.5301 37.5003 34.2962 37.5003 34.0621C37.5001 33.274 37.3305 32.4952 37.0032 31.7783C36.6759 31.0614 36.1984 30.4231 35.6031 29.9067C35.0078 29.3903 34.3085 29.0078 33.5525 28.7851C32.7966 28.5624 32.0016 28.5046 31.2214 28.6157ZM21.0003 46.0933C20.9323 46.0933 20.8659 46.0732 20.8093 46.0354C20.7528 45.9976 20.7087 45.944 20.6827 45.8811C20.6567 45.8183 20.6499 45.7492 20.6632 45.6825C20.6764 45.6159 20.7092 45.5546 20.7572 45.5065C20.8053 45.4585 20.8666 45.4257 20.9332 45.4124C20.9999 45.3992 21.069 45.406 21.1319 45.432C21.1947 45.458 21.2484 45.5021 21.2861 45.5586C21.3239 45.6151 21.3441 45.6816 21.3441 45.7496C21.3441 45.8408 21.3078 45.9282 21.2434 45.9927C21.1789 46.0571 21.0915 46.0933 21.0003 46.0933ZM30.2816 49.8746C30.2136 49.8746 30.1471 49.8544 30.0906 49.8167C30.0341 49.7789 29.99 49.7252 29.964 49.6624C29.938 49.5996 29.9311 49.5305 29.9444 49.4638C29.9577 49.3971 29.9904 49.3358 30.0385 49.2878C30.0866 49.2397 30.1478 49.207 30.2145 49.1937C30.2812 49.1804 30.3503 49.1872 30.4131 49.2133C30.4759 49.2393 30.5296 49.2833 30.5674 49.3399C30.6051 49.3964 30.6253 49.4629 30.6253 49.5308C30.6253 49.622 30.5891 49.7094 30.5246 49.7739C30.4602 49.8384 30.3727 49.8746 30.2816 49.8746ZM33.7191 52.6246C33.6511 52.6246 33.5846 52.6044 33.5281 52.5667C33.4715 52.5289 33.4275 52.4752 33.4015 52.4124C33.3755 52.3496 33.3687 52.2805 33.3819 52.2138C33.3952 52.1471 33.4279 52.0858 33.476 52.0378C33.5241 51.9897 33.5853 51.957 33.652 51.9437C33.7187 51.9304 33.7878 51.9372 33.8506 51.9633C33.9134 51.9893 33.9671 52.0333 34.0049 52.0899C34.0426 52.1464 34.0628 52.2129 34.0628 52.2808C34.0628 52.372 34.0266 52.4594 33.9621 52.5239C33.8977 52.5884 33.8102 52.6246 33.7191 52.6246ZM43.0003 45.4058C43.0683 45.4058 43.1348 45.426 43.1913 45.4638C43.2478 45.5015 43.2919 45.5552 43.3179 45.618C43.3439 45.6809 43.3507 45.75 43.3375 45.8167C43.3242 45.8833 43.2915 45.9446 43.2434 45.9927C43.1953 46.0407 43.1341 46.0735 43.0674 46.0867C43.0007 46.1 42.9316 46.0932 42.8688 46.0672C42.8059 46.0412 42.7523 45.9971 42.7145 45.9406C42.6767 45.884 42.6566 45.8176 42.6566 45.7496C42.6566 45.6584 42.6928 45.571 42.7572 45.5065C42.8217 45.4421 42.9091 45.4058 43.0003 45.4058ZM34.7084 30.9512C35.1532 31.3383 35.5098 31.8163 35.7543 32.3529C35.9987 32.8896 36.1252 33.4724 36.1253 34.0621C36.1254 34.2384 36.1142 34.4145 36.092 34.5894C36.0681 34.7808 36.0851 34.975 36.142 35.1593C36.1989 35.3435 36.2943 35.5136 36.422 35.6581C36.5512 35.8047 36.7102 35.922 36.8883 36.0024C37.0664 36.0829 37.2595 36.1245 37.4549 36.1246H38.1878C38.7348 36.1246 39.2594 36.3419 39.6462 36.7287C40.033 37.1155 40.2503 37.6401 40.2503 38.1871C40.2503 38.7341 40.033 39.2587 39.6462 39.6455C39.2594 40.0323 38.7348 40.2496 38.1878 40.2496H25.8128C25.2658 40.2496 24.7412 40.0323 24.3544 39.6455C23.9676 39.2587 23.7503 38.7341 23.7503 38.1871C23.7503 37.6401 23.9676 37.1155 24.3544 36.7287C24.7412 36.3419 25.2658 36.1246 25.8128 36.1246H26.545C26.7397 36.1248 26.9323 36.0835 27.1098 36.0034C27.2874 35.9234 27.4458 35.8065 27.5747 35.6605C27.7036 35.5145 27.7999 35.3428 27.8572 35.1567C27.9146 34.9706 27.9316 34.7744 27.9073 34.5812C27.7736 33.5085 28.0652 32.4261 28.7197 31.5658C29.3742 30.7055 30.3396 30.1356 31.4091 29.9783C31.9966 29.8916 32.596 29.9337 33.1656 30.1017C33.7353 30.2696 34.2619 30.5595 34.7084 30.9512Z" fill="#1a69fd"></path><path d="M21.9415 35.3323C19.5221 32.8769 18.0918 29.6164 17.9238 26.1734H23.1395C23.1808 28.6953 23.6076 31.196 24.4052 33.5888C24.6502 33.5124 24.9011 33.456 25.1552 33.42C25.1984 32.975 25.2851 32.5353 25.4141 32.1072C24.8644 30.1753 24.5617 28.1815 24.5131 26.1734H31.3128V27.2236C31.7701 27.1793 32.2307 27.1805 32.6878 27.227V10.7212C32.6875 10.5782 32.6425 10.4389 32.5591 10.3228C32.4757 10.2067 32.3581 10.1195 32.2227 10.0736C32.1286 10.0258 32.0247 10.0007 31.9192 10C31.6742 10.0014 31.4295 10.0198 31.187 10.055C28.178 10.2073 25.2794 11.2368 22.8485 13.0167C20.4175 14.7965 18.5606 17.2488 17.5066 20.0713C16.4526 22.8938 16.2477 25.963 16.917 28.9005C17.5863 31.8381 19.1006 34.5155 21.2733 36.6028C21.4311 36.1482 21.6564 35.7199 21.9415 35.3323ZM24.5097 24.7981C24.556 22.3525 24.9904 19.9299 25.7967 17.6206C27.6006 18.0776 29.4521 18.3205 31.3128 18.3442V24.7981H24.5097ZM31.3128 11.4283V16.9695C29.6301 16.9446 27.9553 16.7333 26.3192 16.3394C27.5649 13.6008 29.3431 11.7476 31.3128 11.4283ZM24.9483 15.9311C24.1815 15.6757 23.4577 15.3058 22.8016 14.8338C24.1325 13.6841 25.6668 12.7936 27.3253 12.2083C26.3272 13.305 25.5231 14.564 24.9483 15.9311ZM21.7944 15.7929C22.5947 16.4053 23.4907 16.8815 24.4461 17.2023C23.6134 19.6498 23.1709 22.2131 23.1347 24.7981H17.9241C18.0884 21.4284 19.4625 18.231 21.7944 15.7929Z" fill="#1a69fd"></path></g><defs><clipPath id="clip0_20_7723"><rect width="44" height="44" fill="white" transform="translate(10 10)"></rect></clipPath></defs></svg>